<?xml version="1.0" encoding="utf-8"?><!-- Uploaded to: SVG Repo, www.svgrepo.com, Generator: SVG Repo Mixer Tools -->
<svg fill="#000000" width="800px" height="800px" viewBox="0 0 24 24" id="integral" data-name="Flat Color" xmlns="http://www.w3.org/2000/svg" class="icon flat-color"><path id="primary" d="M7.38,22a3.22,3.22,0,0,1-2.89-1.79l-.38-.76a1,1,0,1,1,1.78-.9l.39.76a1.21,1.21,0,0,0,1.1.69,1.24,1.24,0,0,0,1.18-.85l5-14.93a3.24,3.24,0,0,1,6-.43l.38.76a1,1,0,1,1-1.78.9l-.39-.76A1.21,1.21,0,0,0,16.62,4a1.24,1.24,0,0,0-1.18.85l-5,14.93A3.24,3.24,0,0,1,7.38,22Z" style="fill: rgb(0, 0, 0);"></path></svg>